/* XPM */
static char * bitcoin32_xpm[] = {
"32 32 672 2",
"  	c None",
". 	c #8D3D1A",
"+ 	c #A14922",
"@ 	c #AE4C22",
"# 	c #B04D21",
"$ 	c #AF532B",
"% 	c #A45533",
"& 	c #925136",
"* 	c #8A3F1E",
"= 	c #B5633F",
"- 	c #C75F31",
"; 	c #CF5C27",
"> 	c #D4632E",
", 	c #D5622C",
"' 	c #D5612A",
") 	c #D56129",
"! 	c #D76D3A",
"~ 	c #D97547",
"{ 	c #D88057",
"] 	c #C76235",
"^ 	c #AE4F25",
"/ 	c #8A4729",
"( 	c #B34E21",
"_ 	c #CE5C28",
": 	c #DA7849",
"< 	c #DA7747",
"[ 	c #D4622A",
"} 	c #D66930",
"| 	c #D66A31",
"1 	c #D6692F",
"2 	c #D5662B",
"3 	c #D97540",
"4 	c #DB7F4F",
"5 	c #DE885C",
"6 	c #D66730",
"7 	c #D76934",
"8 	c #D26E3E",
"9 	c #B6613B",
"0 	c #A04F2C",
"a 	c #CA5D2C",
"b 	c #D56029",
"c 	c #D46229",
"d 	c #D8713B",
"e 	c #DD8657",
"f 	c #D76B31",
"g 	c #D76D31",
"h 	c #D87236",
"i 	c #D97237",
"j 	c #D76C2E",
"k 	c #DB7D46",
"l 	c #DF8A5A",
"m 	c #DE8757",
"n 	c #D6682D",
"o 	c #D76D34",
"p 	c #DB7B48",
"q 	c #DD8154",
"r 	c #CB6535",
"s 	c #98421C",
"t 	c #AB4E25",
"u 	c #D36A39",
"v 	c #D8713E",
"w 	c #D5662D",
"x 	c #D6672B",
"y 	c #D76C30",
"z 	c #DF8B5A",
"A 	c #DB7B41",
"B 	c #D97331",
"C 	c #DB7B3C",
"D 	c #DC7E3F",
"E 	c #DA7533",
"F 	c #DE874D",
"G 	c #E29665",
"H 	c #DD834B",
"I 	c #D97133",
"J 	c #D9743A",
"K 	c #DC7E4B",
"L 	c #D97440",
"M 	c #D5622A",
"N 	c #D26634",
"O 	c #AC5C38",
"P 	c #AB4A20",
"Q 	c #D3632E",
"R 	c #D66C37",
"S 	c #DA7844",
"T 	c #DC783F",
"U 	c #DB6F2F",
"V 	c #DC712E",
"W 	c #E2894D",
"X 	c #E59358",
"Y 	c #DF7C35",
"Z 	c #DF8440",
"` 	c #DF8946",
" .	c #DD8038",
"..	c #E19256",
"+.	c #E59F6C",
"@.	c #DD8140",
"#.	c #DB7936",
"$.	c #DC8044",
"%.	c #DF8651",
"&.	c #DA6F33",
"*.	c #DB6F36",
"=.	c #DE7E4D",
"-.	c #D86E3C",
";.	c #A74B21",
">.	c #9E4823",
",.	c #D15E29",
"'.	c #D5632B",
").	c #DA7038",
"!.	c #D1733F",
"~.	c #AB643A",
"{.	c #824721",
"].	c #6F3B18",
"^.	c #724421",
"/.	c #8A5E3C",
"(.	c #A8632B",
"_.	c #CF813D",
":.	c #E2924D",
"<.	c #E08A3E",
"[.	c #E59D60",
"}.	c #E6A46B",
"|.	c #DE8238",
"1.	c #DE8037",
"2.	c #E18C4E",
"3.	c #CC753B",
"4.	c #AD5927",
"5.	c #9F5D38",
"6.	c #A05A35",
"7.	c #B05427",
"8.	c #C55B2A",
"9.	c #994925",
"0.	c #CB6232",
"a.	c #D76A35",
"b.	c #D7682E",
"c.	c #A45224",
"d.	c #402313",
"e.	c #0C0704",
"f.	c #000000",
"g.	c #010000",
"h.	c #090602",
"i.	c #372412",
"j.	c #C88A4A",
"k.	c #E69745",
"l.	c #E9AA6B",
"m.	c #E7A361",
"n.	c #E28937",
"o.	c #C87C3A",
"p.	c #734A2A",
"q.	c #2A180A",
"r.	c #0E0703",
"s.	c #060403",
"t.	c #070302",
"u.	c #110804",
"v.	c #351A0D",
"w.	c #9B4924",
"x.	c #B5552A",
"y.	c #D66834",
"z.	c #D96F39",
"A.	c #9C522A",
"B.	c #190C05",
"C.	c #050403",
"D.	c #0D0905",
"E.	c #090603",
"F.	c #010100",
"G.	c #22190C",
"H.	c #D19A51",
"I.	c #EAA74F",
"J.	c #EDB876",
"K.	c #EBA859",
"L.	c #B57633",
"M.	c #32200F",
"N.	c #010101",
"O.	c #090402",
"P.	c #A1491F",
"Q.	c #B44F22",
"R.	c #905034",
"S.	c #D37144",
"T.	c #D9713C",
"U.	c #C46734",
"V.	c #2D180C",
"W.	c #020201",
"X.	c #452911",
"Y.	c #9D6836",
"Z.	c #B8844F",
"`.	c #AF7D40",
" +	c #886129",
".+	c #3B2F1B",
"++	c #49381C",
"@+	c #E7B35D",
"#+	c #EEB55A",
"$+	c #F3C57D",
"%+	c #C8974D",
"&+	c #2C200F",
"*+	c #070402",
"=+	c #342212",
"-+	c #53361F",
";+	c #3F2411",
">+	c #100803",
",+	c #1C0D06",
"'+	c #BC5725",
")+	c #833A18",
"!+	c #B15830",
"~+	c #DB7B4C",
"{+	c #E08758",
"]+	c #955836",
"^+	c #040201",
"/+	c #322010",
"(+	c #CF8440",
"_+	c #E79542",
":+	c #ECAA5B",
"<+	c #F0B96B",
"[+	c #F0B454",
"}+	c #E0B366",
"|+	c #C59E5A",
"1+	c #EFC069",
"2+	c #F1C36E",
"3+	c #ECC57F",
"4+	c #564322",
"5+	c #110C06",
"6+	c #855D32",
"7+	c #D79150",
"8+	c #E08A43",
"9+	c #D67731",
"0+	c #A45623",
"a+	c #673315",
"b+	c #CC6129",
"c+	c #AB4C20",
"d+	c #C55827",
"e+	c #D66630",
"f+	c #DC763E",
"g+	c #744327",
"h+	c #472E18",
"i+	c #E1964D",
"j+	c #E9A24F",
"k+	c #EAA84A",
"l+	c #EFBB65",
"m+	c #F1C371",
"n+	c #F2C46E",
"o+	c #F5CF83",
"p+	c #F3CA78",
"q+	c #F7D185",
"r+	c #B09868",
"s+	c #0C0905",
"t+	c #030302",
"u+	c #806236",
"v+	c #EAA858",
"w+	c #E49241",
"x+	c #DF8537",
"y+	c #DD7E34",
"z+	c #DD7834",
"A+	c #D26E32",
"B+	c #D5692E",
"C+	c #D5632A",
"D+	c #C35725",
"E+	c #935236",
"F+	c #D6784C",
"G+	c #DA7A49",
"H+	c #DE7B44",
"I+	c #754223",
"J+	c #0B0704",
"K+	c #73512C",
"L+	c #D39C52",
"M+	c #EFB75C",
"N+	c #F1BC5D",
"O+	c #F2C97A",
"P+	c #F4CE82",
"Q+	c #F5D590",
"R+	c #F6D58E",
"S+	c #F4D89A",
"T+	c #5C533E",
"U+	c #372C18",
"V+	c #DCA853",
"W+	c #EAA649",
"X+	c #E59A47",
"Y+	c #E29349",
"Z+	c #E08D49",
"`+	c #DE8544",
" @	c #DB783A",
".@	c #D76B2F",
"+@	c #CE5C27",
"@@	c #863B19",
"#@	c #A3502C",
"$@	c #D87445",
"%@	c #DC8253",
"&@	c #E39060",
"*@	c #A76F4B",
"=@	c #0D0906",
"-@	c #030201",
";@	c #2B2114",
">@	c #7C6337",
",@	c #CEA861",
"'@	c #F4CC7B",
")@	c #F6D894",
"!@	c #F7DFAC",
"~@	c #FAE5BF",
"{@	c #DACAAD",
"]@	c #221F1A",
"^@	c #896E3C",
"/@	c #F3BF66",
"(@	c #EDB764",
"_@	c #EAAC62",
":@	c #E69F59",
"<@	c #E2924E",
"[@	c #DE8441",
"}@	c #DA7736",
"|@	c #D76B2E",
"1@	c #D5652A",
"2@	c #D36029",
"3@	c #9B441D",
"4@	c #AD4B20",
"5@	c #D4612A",
"6@	c #DA763C",
"7@	c #D88046",
"8@	c #754827",
"9@	c #0F0A05",
"0@	c #211C12",
"a@	c #917F56",
"b@	c #F2D9A6",
"c@	c #FAEBD7",
"d@	c #FEF4EE",
"e@	c #B2ABA8",
"f@	c #070606",
"g@	c #15120D",
"h@	c #C8AB72",
"i@	c #F5CB7F",
"j@	c #EFBC6B",
"k@	c #EAAB5B",
"l@	c #E4994C",
"m@	c #DD7E36",
"n@	c #DA7531",
"o@	c #D6672C",
"p@	c #A84B20",
"q@	c #B15127",
"r@	c #D66731",
"s@	c #D76D35",
"t@	c #D97439",
"u@	c #DD7E3F",
"v@	c #DD8644",
"w@	c #A96C36",
"x@	c #50361B",
"y@	c #130E07",
"z@	c #0A0906",
"A@	c #968D7D",
"B@	c #FCF2EC",
"C@	c #FFFBFA",
"D@	c #8B8989",
"E@	c #352E1E",
"F@	c #E6C37C",
"G@	c #F2C571",
"H@	c #EEB85F",
"I@	c #E9A954",
"J@	c #E59A4B",
"K@	c #E18F45",
"L@	c #DF8641",
"M@	c #DC7D3D",
"N@	c #AF5024",
"O@	c #B05025",
"P@	c #D6652E",
"Q@	c #D87033",
"R@	c #DA7836",
"S@	c #DD8039",
"T@	c #E38B3F",
"U@	c #DF9142",
"V@	c #BB833A",
"W@	c #6C5126",
"X@	c #120E08",
"Y@	c #32302D",
"Z@	c #E7DFDB",
"`@	c #716F6F",
" #	c #51462F",
".#	c #F1CC81",
"+#	c #EDB65A",
"@#	c #E8A64D",
"##	c #E49542",
"$#	c #E0893C",
"%#	c #DD8037",
"&#	c #DA7734",
"*#	c #D86E30",
"=#	c #AE4D22",
"-#	c #D46029",
";#	c #D5652B",
">#	c #DA7634",
",#	c #DD813C",
"'#	c #E18D45",
")#	c #E59B51",
"!#	c #EDAE5F",
"~#	c #F0BE6E",
"{#	c #866E44",
"]#	c #131210",
"^#	c #CEC3B8",
"/#	c #FEF6F1",
"(#	c #64605F",
"_#	c #5D533C",
":#	c #F5D596",
"<#	c #F3CB83",
"[#	c #EFBE70",
"}#	c #EAAE60",
"|#	c #E59C51",
"1#	c #E18C43",
"2#	c #DD7E37",
"3#	c #D9732F",
"4#	c #D76B2C",
"5#	c #A6491F",
"6#	c #A0461E",
"7#	c #D35F29",
"8#	c #D4652C",
"9#	c #D46E33",
"0#	c #DD7C3E",
"a#	c #DF8848",
"b#	c #E39554",
"c#	c #E6A15E",
"d#	c #EAAD65",
"e#	c #F1BB69",
"f#	c #BC9552",
"g#	c #0C0A05",
"h#	c #13110C",
"i#	c #CCBA94",
"j#	c #FDEDD1",
"k#	c #675F53",
"l#	c #4E4129",
"m#	c #F0C980",
"n#	c #F2CA82",
"o#	c #EFC079",
"p#	c #EBB26D",
"q#	c #E7A360",
"r#	c #E59754",
"s#	c #DF8746",
"t#	c #DB7838",
"u#	c #D76D30",
"v#	c #99431C",
"w#	c #8B3C1A",
"x#	c #D05D28",
"y#	c #C25C28",
"z#	c #653418",
"A#	c #B06435",
"B#	c #DF8749",
"C#	c #E5924F",
"D#	c #E69851",
"E#	c #E9A051",
"F#	c #ECAA51",
"G#	c #87652F",
"H#	c #2A2415",
"I#	c #E1C68D",
"J#	c #FCE2AA",
"K#	c #7F6F4E",
"L#	c #1E180B",
"M#	c #C99B48",
"N#	c #F3BA5C",
"O#	c #EFB668",
"P#	c #EEB26F",
"Q#	c #E1A063",
"R#	c #B17747",
"S#	c #D3844C",
"T#	c #DD8045",
"U#	c #D87239",
"V#	c #D5672F",
"W#	c #CE5D28",
"X#	c #843A18",
"Y#	c #C65826",
"Z#	c #AB5023",
"`#	c #170D07",
" $	c #5E371D",
".$	c #995D2E",
"+$	c #B16E34",
"@$	c #AB6E31",
"#$	c #744E20",
"$$	c #150F06",
"%$	c #725E38",
"&$	c #F6D79A",
"*$	c #F8D793",
"=$	c #B0955D",
"-$	c #0A0805",
";$	c #402F13",
">$	c #A4752E",
",$	c #B67C34",
"'$	c #996936",
")$	c #4F3924",
"!$	c #3E2919",
"~$	c #D38651",
"{$	c #DE844E",
"]$	c #DA7944",
"^$	c #D76C37",
"/$	c #C25929",
"($	c #B14F23",
"_$	c #8D421E",
":$	c #020101",
"<$	c #050201",
"[$	c #0C0703",
"}$	c #090502",
"|$	c #403015",
"1$	c #D7AE66",
"2$	c #F6D598",
"3$	c #F3C97C",
"4$	c #E5B969",
"5$	c #493B23",
"6$	c #0C0803",
"7$	c #53311A",
"8$	c #DE864E",
"9$	c #DC814D",
"0$	c #D9713F",
"a$	c #A8552E",
"b$	c #8A3D1B",
"c$	c #9E471F",
"d$	c #3F1D0C",
"e$	c #150A04",
"f$	c #030101",
"g$	c #180F07",
"h$	c #62421D",
"i$	c #CF9547",
"j$	c #F1C279",
"k$	c #F2CC8E",
"l$	c #EFBC68",
"m$	c #F0B95E",
"n$	c #C69C57",
"o$	c #3B2F1C",
"p$	c #7B411A",
"q$	c #DB7131",
"r$	c #D8713A",
"s$	c #D97441",
"t$	c #CE693A",
"u$	c #7D3E20",
"v$	c #B34F22",
"w$	c #CE5E28",
"x$	c #B35423",
"y$	c #934F29",
"z$	c #7D5238",
"A$	c #6F4223",
"B$	c #75411A",
"C$	c #915626",
"D$	c #BD7635",
"E$	c #E09140",
"F$	c #E9A65B",
"G$	c #EDBC7F",
"H$	c #EFC084",
"I$	c #EAAC5A",
"J$	c #E9A850",
"K$	c #ECAF60",
"L$	c #D7A261",
"M$	c #8E673E",
"N$	c #563517",
"O$	c #422914",
"P$	c #452811",
"Q$	c #5E3415",
"R$	c #8E4C1F",
"S$	c #C9672B",
"T$	c #D76A2C",
"U$	c #AD5329",
"V$	c #C85A27",
"W$	c #DA713D",
"X$	c #E28A5C",
"Y$	c #E0834E",
"Z$	c #DC7433",
"`$	c #DE7731",
" %	c #E07E35",
".%	c #E08438",
"+%	c #E18C41",
"@%	c #E7A465",
"#%	c #EBB57F",
"$%	c #EBB278",
"%%	c #E59C4E",
"&%	c #E49644",
"*%	c #E59D53",
"=%	c #E8A460",
"-%	c #EAA666",
";%	c #E18D43",
">%	c #DA833B",
",%	c #DA7E39",
"'%	c #DC7731",
")%	c #DC722F",
"!%	c #D86B2C",
"~%	c #9E5231",
"{%	c #D97F56",
"]%	c #D97543",
"^%	c #D86F2E",
"/%	c #DA7430",
"(%	c #DB7931",
"_%	c #DF8945",
":%	c #E6A26B",
"<%	c #E9AE7C",
"[%	c #E7A66C",
"}%	c #E08839",
"|%	c #E18F47",
"1%	c #E39756",
"2%	c #E49A5D",
"3%	c #E29253",
"4%	c #DC7B34",
"5%	c #DC7C3B",
"6%	c #D97232",
"7%	c #CF5D28",
"8%	c #93421C",
"9%	c #AA552E",
"0%	c #D25F29",
"a%	c #D6692C",
"b%	c #D86E2E",
"c%	c #E08B51",
"d%	c #E59F6D",
"e%	c #E7A676",
"f%	c #E49960",
"g%	c #DE853F",
"h%	c #DD7D33",
"i%	c #DD823B",
"j%	c #E08C4D",
"k%	c #E08E52",
"l%	c #E1925B",
"m%	c #DB793A",
"n%	c #D87032",
"o%	c #D87036",
"p%	c #D5672C",
"q%	c #D15F28",
"r%	c #A1481E",
"s%	c #D76D32",
"t%	c #DA783E",
"u%	c #DF8A57",
"v%	c #E49B6E",
"w%	c #E49C6D",
"x%	c #E08C54",
"y%	c #DB7B39",
"z%	c #DA742F",
"A%	c #DA7633",
"B%	c #DD8246",
"C%	c #DD8148",
"D%	c #DE8752",
"E%	c #DC7F4A",
"F%	c #D6682C",
"G%	c #A2481E",
"H%	c #98431C",
"I%	c #C85926",
"J%	c #D76C36",
"K%	c #DE8657",
"L%	c #E2966C",
"M%	c #E19264",
"N%	c #DC7F48",
"O%	c #D97235",
"P%	c #D76C2D",
"Q%	c #D76D2E",
"R%	c #DA773E",
"S%	c #DA773F",
"T%	c #DD8354",
"U%	c #D66933",
"V%	c #C65D2C",
"W%	c #92431E",
"X%	c #B04F22",
"Y%	c #CF6432",
"Z%	c #DB7849",
"`%	c #DE875B",
" &	c #E08E64",
".&	c #DE895C",
"+&	c #D9743F",
"@&	c #D66B31",
"#&	c #D76E37",
"$&	c #D76F39",
"%&	c #D86D38",
"&&	c #D06E40",
"*&	c #AC4D21",
"=&	c #844223",
"-&	c #AE5D38",
";&	c #CC7E5A",
">&	c #D78057",
",&	c #DB7F54",
"'&	c #D76B37",
")&	c #D46631",
"!&	c #D06634",
"~&	c #C25C2C",
"{&	c #AA5730",
"]&	c #814B31",
"^&	c #8A5036",
"/&	c #A05938",
"(&	c #A95128",
"_&	c #AF4F24",
":&	c #AE4D21",
"<&	c #A74A1F",
"[&	c #994620",
"}&	c #834020",
"                        . + @ # # $ % &                         ",
"                  * = - ; > , ' ) ! ~ { ] ^ /                   ",
"                ( _ : < [ } | 1 2 3 4 5 6 7 8 9                 ",
"            0 a b c d e f g h i j k l m n o p q r s             ",
"          t u v w x y z A B C D E F G H I J K L M N O           ",
"        P Q R S T U V W X Y Z `  ...+.@.#.$.%.&.*.=.-.;.        ",
"      >.,.'.).!.~.{.].^./.(._.:.<.[.}.|.1.2.3.4.5.6.7.8.9.      ",
"      0.a.b.c.d.e.f.f.f.g.h.i.j.k.l.m.n.o.p.q.r.s.t.u.v.w.      ",
"    x.y.z.A.B.f.f.C.D.E.F.f.G.H.I.J.K.L.M.N.f.f.f.f.f.O.P.Q.    ",
"  R.S.T.U.V.f.W.X.Y.Z.`. +.+++@+#+$+%+&+f.f.*+=+-+;+>+,+'+_ )+  ",
"  !+~+{+]+^+f./+(+_+:+<+[+}+|+1+2+3+4+f.f.5+6+7+8+9+0+a+b+) c+  ",
"  d+e+f+g+f.f.h+i+j+k+l+m+n+o+p+q+r+s+f.t+u+v+w+x+y+z+A+B+C+D+  ",
"E+F+G+H+I+f.f.J+K+L+M+N+O+P+Q+R+S+T+f.f.U+V+W+X+Y+Z+`+ @.@C++@@@",
"#@$@%@&@*@=@f.f.-@;@>@,@'@)@!@~@{@]@f.f.^@/@(@_@:@<@[@}@|@1@2@3@",
"4@5@| 6@7@8@9@f.f.f.F.0@a@b@c@d@e@f@f.g@h@i@j@k@l@<.m@n@j o@M p@",
"q@r@s@t@u@v@w@x@y@f.f.f.z@A@B@C@D@f.f.E@F@G@H@I@J@K@L@M@t@o e+N@",
"O@P@| Q@R@S@T@U@V@W@X@f.f.Y@Z@C@`@f.f. #.#2++#@###$#%#&#*#n '.=#",
"4@-#;#j >#,#'#)#!#~#{#W.f.]#^#/#(#f.f._#:#<#[#}#|#1#2#3#4#1@-#5#",
"6#7#8#9#0#a#b#c#d#e#f#g#f.h#i#j#k#f.f.l#m#n#o#p#q#r#s#t#u#;#7#v#",
"w#x#y#z#A#B#C#D#E#F#G#W.f.H#I#J#K#f.f.L#M#N#O#P#Q#R#S#T#U#V#W#X#",
"  Y#Z#r.`# $.$+$@$#$$$f.f.%$&$*$=$-$f.f.;$>$,$'$)$!$~${$]$^$/$  ",
"  ($_$:$f.f.<$[$}$F.f.f.|$1$2$3$4$5$f.f.f.*+6$^+f.7$8$9$S 0$a$  ",
"  b$c$d$e$f$f.f.f.W.g$h$i$j$k$l$m$n$o$W.f.f.f.f.:$p$q$r$s$t$u$  ",
"    v$w$x$y$z$A$B$C$D$E$F$G$H$I$J$K$L$M$N$O$P$Q$R$S$T$1@, U$    ",
"      V$W$X$Y$Z$`$ %.%+%@%#%$%%%&%*%=%-%;%>%,%'%)%!%2 C+Y#      ",
"      ~%{%]%o@T$^%/%(%_%:%<%[%K@}%|%1%2%3%4%5%6%T$x C+7%8%      ",
"        9%0%M 2 a%b%B c%d%e%f%g%h%i%j%k%l%m%n%o%p%C+q%r%        ",
"          5#x#M ;#s%t%u%v%w%x%y%z%A%B%C%D%E%F%| 6 7%G%          ",
"            H%I%'.J%p K%L%M%N%O%P%Q%R%S%]$T%U%M V%W%            ",
"                X%Y%Z%`% &.&+&@&2 2 #&$&%&~+&&*&                ",
"                  =&-&;&>&,&'&P@) ) )&!&~&{&]&                  ",
"                        ^&/&(&_&:&<&[&}&                        "};
